<?xml version="1.0" encoding="utf-8"?>
<!-- Generator: Adobe Illustrator 25.3.1, SVG Export Plug-In . SVG Version: 6.00 Build 0)  -->
<svg version="1.1" id="Layer_1" xmlns="http://www.w3.org/2000/svg" xmlns:xlink="http://www.w3.org/1999/xlink" x="0px" y="0px"
	 viewBox="0 0 2486.3 200.8" style="enable-background:new 0 0 2486.3 200.8;" xml:space="preserve">
<style type="text/css">
	.st0{fill:#662D91;}
	.st1{font-family:'Avenir-Book';}
	.st2{font-size:172px;}
	.st3{fill:#2B2B2B;}
	.st4{fill:url(#SVGID_1_);}
	.st5{fill:url(#SVGID_2_);}
	.st6{fill:url(#SVGID_3_);}
	.st7{fill:url(#SVGID_4_);}
	.st8{fill:url(#SVGID_5_);}
	.st9{fill:#636464;}
	.st10{fill:#4E4949;}
	.st11{fill:none;stroke:#000000;stroke-miterlimit:10;}
	.st12{fill:url(#SVGID_6_);}
	.st13{fill:url(#SVGID_7_);}
	.st14{fill:url(#SVGID_8_);}
	.st15{fill:url(#SVGID_9_);}
	.st16{fill:url(#SVGID_10_);}
	.st17{fill:url(#SVGID_11_);}
	.st18{fill:url(#SVGID_12_);}
	.st19{fill:url(#SVGID_13_);}
	.st20{fill:url(#SVGID_14_);}
	.st21{fill:url(#SVGID_15_);}
	.st22{fill:url(#SVGID_16_);}
	.st23{fill:url(#SVGID_17_);}
	.st24{fill:url(#SVGID_18_);}
	.st25{fill:url(#SVGID_19_);}
	.st26{fill:url(#SVGID_20_);}
</style>
<text transform="matrix(1 0 0 1 256.0968 159.4384)" class="st0 st1 st2">licorice</text>
<g>
	<g>
		<path class="st3" d="M188.5,110c-8,5.4-17.6,11-28.9,16.1C140,135,122,139.2,108,141.3c-4.7,2.4-9.6,4.7-14.9,7
			c-11.1,4.8-21.7,8.4-31.4,11.2c-6.2-6.6-16.2-19-22.6-37.3c-5.7-16.6-6.1-31.1-5.6-39.9c0.1-0.2,0.2-0.4,0.4-0.7
			c0,0,0.6-0.8,1.7-1.3C59,70.7,78.3,69.1,78.3,69.1c9.2-0.8,22.5-2.2,39.3-5.4c6.8-1.6,16.6-3.9,28.5-6.2
			c14.1-2.7,23.9-4.6,36.6-5.6c8.1-0.7,19.6-1.2,33.6-0.4c2.1,1.4,3.7,2.9,4.8,4.4c9.3,11.7,2,29.7,1.2,31.8c0.4,0,0.9,0.1,1.3,0.5
			c1.5,1,1.5,3.4,1.4,4.9c0,1.4-0.1,4.9-2.6,7.7c-1.9,2.1-4.6,3.2-5.7,3.6c0,0,0,0-0.1,0c-6.2,2.4-20.6,4.5-25.4,5.2
			C190.9,109.6,188.9,109.9,188.5,110z"/>
		
			<linearGradient id="SVGID_1_" gradientUnits="userSpaceOnUse" x1="197.6887" y1="82.2995" x2="197.6887" y2="74.3166" gradientTransform="matrix(0.9925 -0.1219 0.1219 0.9925 -36.6276 3.7407)">
			<stop  offset="0" style="stop-color:#010101"/>
			<stop  offset="1.164448e-02" style="stop-color:#020302;stop-opacity:0.9884"/>
			<stop  offset="0.2506" style="stop-color:#181919;stop-opacity:0.7494"/>
			<stop  offset="0.4936" style="stop-color:#232423;stop-opacity:0.5064"/>
			<stop  offset="0.7411" style="stop-color:#292929;stop-opacity:0.2589"/>
			<stop  offset="1" style="stop-color:#2B2B2B;stop-opacity:0"/>
		</linearGradient>
		<path class="st4" d="M220.3,55.1c-0.4-0.6-0.9-1.2-1.6-1.9c-0.9-0.8-1.7-1.4-2.4-1.7c-12.5-0.8-23-0.4-31,0.2
			c-14,1-24.6,3-37.4,5.5c-11.8,2.3-21.8,4.6-29.4,6.6c8.6-2,20.5-4.5,34.9-6.7c10.2-1.6,18.2-2.8,28.6-3.4
			C191.4,53.2,204.5,53.1,220.3,55.1z"/>
		
			<linearGradient id="SVGID_2_" gradientUnits="userSpaceOnUse" x1="156.602" y1="96.6547" x2="156.602" y2="75.7813" gradientTransform="matrix(0.9925 -0.1219 0.1219 0.9925 -36.6276 3.7407)">
			<stop  offset="0" style="stop-color:#010101"/>
			<stop  offset="1.164448e-02" style="stop-color:#020302;stop-opacity:0.9884"/>
			<stop  offset="0.2506" style="stop-color:#181919;stop-opacity:0.7494"/>
			<stop  offset="0.4936" style="stop-color:#232423;stop-opacity:0.5064"/>
			<stop  offset="0.7411" style="stop-color:#292929;stop-opacity:0.2589"/>
			<stop  offset="1" style="stop-color:#2B2B2B;stop-opacity:0"/>
		</linearGradient>
		<path class="st5" d="M49.4,87.5c25.7-5.8,54.9-11,87-14.5c32.6-3.5,62.6-4.5,89.3-4.2c0-1.7-0.2-4.1-1.2-6.9
			c-1.2-3.3-3-5.6-4.2-6.9c-16.2-2-29.6-1.9-39.2-1.3c-15.2,0.9-28.5,3.3-36.1,4.7c-9.6,1.8-12.7,2.8-26.5,5.2
			c-11.6,2-19.6,3.1-21.8,3.4c-12.4,1.7-17.8,1.9-23.4,2.6c-9.3,1.1-22.7,4-39.3,11.7c0.1,0.4,1.1,5.3,5.9,7.2
			C44.9,90.7,49.2,87.7,49.4,87.5z"/>
		
			<linearGradient id="SVGID_3_" gradientUnits="userSpaceOnUse" x1="102.6722" y1="166.5178" x2="102.6722" y2="150.043" gradientTransform="matrix(0.9925 -0.1219 0.1219 0.9925 -36.6276 3.7407)">
			<stop  offset="0" style="stop-color:#010101"/>
			<stop  offset="1.164448e-02" style="stop-color:#020302;stop-opacity:0.9884"/>
			<stop  offset="0.2506" style="stop-color:#181919;stop-opacity:0.7494"/>
			<stop  offset="0.4936" style="stop-color:#232423;stop-opacity:0.5064"/>
			<stop  offset="0.7411" style="stop-color:#292929;stop-opacity:0.2589"/>
			<stop  offset="1" style="stop-color:#2B2B2B;stop-opacity:0"/>
		</linearGradient>
		<path class="st6" d="M61.7,159.4c7.5-2.1,15.6-4.8,24.1-8.2c8.1-3.2,15.5-6.6,22.2-10c-6.3,0.8-13.5,1.3-21.3,1.2
			c-5.4-0.1-10.5-0.4-15.2-0.9C68.2,147.6,64.9,153.5,61.7,159.4z"/>
		
			<linearGradient id="SVGID_4_" gradientUnits="userSpaceOnUse" x1="148.6414" y1="154.1416" x2="148.6414" y2="130.6634" gradientTransform="matrix(0.9925 -0.1219 0.1219 0.9925 -36.6276 3.7407)">
			<stop  offset="0" style="stop-color:#010101"/>
			<stop  offset="1.164448e-02" style="stop-color:#020302;stop-opacity:0.9884"/>
			<stop  offset="0.2506" style="stop-color:#181919;stop-opacity:0.7494"/>
			<stop  offset="0.4936" style="stop-color:#232423;stop-opacity:0.5064"/>
			<stop  offset="0.7411" style="stop-color:#292929;stop-opacity:0.2589"/>
			<stop  offset="1" style="stop-color:#2B2B2B;stop-opacity:0"/>
		</linearGradient>
		<path class="st7" d="M71.5,141.6c0.5,0.2,0.9,0.3,1.1,0.3c6.2,0.9,26.5-0.2,35.4-0.7c15-2.2,26.8-5.7,35.1-8.5
			c3.5-1.2,10.1-3.6,18-7.3c6.5-3,11.9-5.9,15.6-8.1c4.3-2.4,7.9-4.8,10.9-6.7c-7.4,1.5-18.1,3.4-31,5c-11.5,1.5-20.1,2.1-27.8,2.7
			c-14.9,1.1-35.5,2.6-60.8,4.2C67.3,129.4,66.9,139.6,71.5,141.6z"/>
		
			<linearGradient id="SVGID_5_" gradientUnits="userSpaceOnUse" x1="166.3454" y1="133.6582" x2="166.3454" y2="108.9366" gradientTransform="matrix(0.9925 -0.1219 0.1219 0.9925 -36.6276 3.7407)">
			<stop  offset="0" style="stop-color:#010101"/>
			<stop  offset="1.164448e-02" style="stop-color:#020302;stop-opacity:0.9884"/>
			<stop  offset="0.2506" style="stop-color:#181919;stop-opacity:0.7494"/>
			<stop  offset="0.4936" style="stop-color:#232423;stop-opacity:0.5064"/>
			<stop  offset="0.7411" style="stop-color:#292929;stop-opacity:0.2589"/>
			<stop  offset="1" style="stop-color:#2B2B2B;stop-opacity:0"/>
		</linearGradient>
		<path class="st8" d="M68.4,122.6c5.7-0.4,14.2-1,24.5-1.8c20.6-1.6,36.2-2.8,55-5.1c9.9-1.2,23.9-3,40.6-5.8
			c6.5-1.2,11.8-1.9,15.4-2.4c4.6-0.6,9.6-1.2,14.9-4c1.7-0.9,3.3-2,4.5-3.9c1.3-2,1.5-3.9,1.8-6.8c0.2-1.8,0-2.9-0.6-3.7
			c-0.4-0.5-0.9-0.9-1.3-1c-24.2,3.8-50.1,7.1-77.6,9.5c-30.4,2.6-59.1,3.9-85.9,4.1C62.5,108.7,65.4,115.6,68.4,122.6z"/>
		<path class="st9" d="M75.4,75.8c-0.4,0.6,2.8,0.8,3.7,0.9c7.8,0.5,16.3-2.1,40.4-5.7c2.3-0.3,14.1-2.1,27.7-3.5
			c5.1-0.5,7.6-0.8,9.6-1c9.7-0.8,14.5-0.7,17.3-1.6c1.3-0.4,2-1,1.5-1.4c-1.2-0.8-10.4,0.2-50.3,5.1C90.7,72.8,76.2,74.6,75.4,75.8
			z"/>
		<path class="st9" d="M152.4,110.7c-0.2,0.3-6.9,0.5-19.4,2.2c-10.4,1.4-16.3,2.8-27.7,3.8c-3.3,0.3-7.4,0.7-7.5,0.4
			c-0.2-0.5,12.3-3,24.6-4.5C138.6,110.5,152.7,110.3,152.4,110.7z"/>
		<path class="st10" d="M120.3,79.7"/>
		<path class="st11" d="M68.3,121.9c19.5-0.6,40.2-1.9,62.1-4.1c20.5-2.1,40-4.8,58.2-7.8"/>
		<path class="st11" d="M72.3,141.6c5.8,0.4,12.1,0.6,18.9,0.5c6-0.1,11.6-0.4,16.8-0.9"/>
		<path class="st11" d="M49.4,87.5c27-5.7,50.4-9.4,68.6-11.8c14.3-1.9,31.8-4.3,55.3-5.7c20.7-1.3,38.5-1.4,52.3-1.1"/>
		<path class="st11" d="M220.3,55.1c-7.8-1-17.9-1.8-29.7-1.6c-3.5,0-6.8,0.2-9.9,0.4c-7.8,0.5-14.3,1.3-21.7,2.4
			c-16.9,2.6-33.7,6.1-40.5,7.5"/>
		<path class="st9" d="M220.4,80.7c0.4-0.6-2.8-0.8-3.7-0.9c-7.8-0.5-16.3,2.1-40.4,5.7c-2.3,0.3-14.1,2.1-27.7,3.5
			c-5.1,0.5-7.6,0.8-9.6,1c-9.7,0.8-14.5,0.7-17.3,1.6c-1.3,0.4-2,1-1.5,1.4c1.2,0.8,10.4-0.2,50.3-5.1
			C205.1,83.6,219.6,81.9,220.4,80.7z"/>
		
			<linearGradient id="SVGID_6_" gradientUnits="userSpaceOnUse" x1="266.3022" y1="94.0469" x2="266.3022" y2="94.0469" gradientTransform="matrix(0.9925 -0.1219 0.1219 0.9925 -36.6276 3.7407)">
			<stop  offset="0" style="stop-color:#010101"/>
			<stop  offset="1.164448e-02" style="stop-color:#020302;stop-opacity:0.9884"/>
			<stop  offset="0.2506" style="stop-color:#181919;stop-opacity:0.7494"/>
			<stop  offset="0.4936" style="stop-color:#232423;stop-opacity:0.5064"/>
			<stop  offset="0.7411" style="stop-color:#292929;stop-opacity:0.2589"/>
			<stop  offset="1" style="stop-color:#2B2B2B;stop-opacity:0"/>
		</linearGradient>
		<path class="st12" d="M239.2,64.6"/>
		
			<linearGradient id="SVGID_7_" gradientUnits="userSpaceOnUse" x1="16.3022" y1="129.3014" x2="16.3022" y2="129.3014" gradientTransform="matrix(0.9925 -0.1219 0.1219 0.9925 -36.6276 3.7407)">
			<stop  offset="0" style="stop-color:#010101"/>
			<stop  offset="1.164448e-02" style="stop-color:#020302;stop-opacity:0.9884"/>
			<stop  offset="0.2506" style="stop-color:#181919;stop-opacity:0.7494"/>
			<stop  offset="0.4936" style="stop-color:#232423;stop-opacity:0.5064"/>
			<stop  offset="0.7411" style="stop-color:#292929;stop-opacity:0.2589"/>
			<stop  offset="1" style="stop-color:#2B2B2B;stop-opacity:0"/>
		</linearGradient>
		<path class="st13" d="M-4.7,130.1"/>
		
			<linearGradient id="SVGID_8_" gradientUnits="userSpaceOnUse" x1="163.8276" y1="115.4739" x2="163.8276" y2="90.3494" gradientTransform="matrix(0.9925 -0.1219 0.1219 0.9925 -36.6276 3.7407)">
			<stop  offset="0" style="stop-color:#010101"/>
			<stop  offset="1.164448e-02" style="stop-color:#020302;stop-opacity:0.9884"/>
			<stop  offset="0.2506" style="stop-color:#181919;stop-opacity:0.7494"/>
			<stop  offset="0.4936" style="stop-color:#232423;stop-opacity:0.5064"/>
			<stop  offset="0.7411" style="stop-color:#292929;stop-opacity:0.2589"/>
			<stop  offset="1" style="stop-color:#2B2B2B;stop-opacity:0"/>
		</linearGradient>
		<path class="st14" d="M60.2,101.4c23.1-0.3,47.6-1.4,73.1-3.4c31.6-2.4,61.3-6,89-10.3c0.9-2.2,1.8-4.9,2.5-8.1
			c0.9-4.1,1-7.8,0.9-10.7c-36.7,0-77.6,2.4-121.6,8.8c-19.1,2.8-37.3,6.1-54.6,9.8C53,92.2,56.6,96.8,60.2,101.4z"/>
		<path class="st11" d="M60.2,101.4c23.1-0.3,47.6-1.4,73.1-3.4c31.7-2.5,61.5-6.1,89.2-10.5"/>
		<g>
			<path class="st10" d="M67.5,130c0,1.5,0.4,2.5,0.9,4c1.4,4,3,4.3,4.2,7.9c0.5,1.4,0.9,2.9,0.6,4.9c-0.1,0.7-0.6,2.7-2.1,4.3
				c-2.3,2.4-4.3,1.2-6.3,3.4c-1.8,2-1,4.1-2.5,4.7c-1.4,0.6-2.3-0.9-5.8-1.8c-1.1-0.3-3.4-0.8-6-0.4c-3.4,0.6-3.8,2.4-5.7,2
				c-2.8-0.6-4.2-5.1-4.8-7c-0.7-2.2-0.5-2.8-0.9-4.3c-1.4-5.2-6.1-4.7-9.5-9.7c-3.8-5.4-3.9-14.1-2.6-18.3c0.2-0.5,0.5-1.4,0.4-2.6
				c-0.3-2.9-2.7-3.4-4.3-6.4c-1.7-3.1-1.6-7.2,0-9.9c0.5-0.8,1.1-1.4,2.3-2.6c3.3-3.2,4.2-2.6,5.3-4.2c1.8-2.7-0.3-4.9,1.6-10.2
				c0.6-1.8,1.2-2.3,1.7-2.5c1.6-0.9,3.8,0.4,6.5,1.9c3.4,1.9,2.9,2.4,4.9,3.3c3.8,1.7,5.6,0.1,8.3,2.1c1.3,0.9,1.9,2,3,3.8
				c1.7,2.8,2.2,5.2,2.5,6.5c2.1,7.1,7,6.6,9.8,14.2c1,2.7,2.2,5.9,1.1,9.3C69.3,125.3,67.5,126.7,67.5,130z"/>
			
				<linearGradient id="SVGID_9_" gradientUnits="userSpaceOnUse" x1="68.9338" y1="148.2736" x2="68.9338" y2="103.8268" gradientTransform="matrix(0.9925 -0.1219 0.1219 0.9925 -36.6276 3.7407)">
				<stop  offset="0" style="stop-color:#141414"/>
				<stop  offset="0.2337" style="stop-color:#161617"/>
				<stop  offset="0.4568" style="stop-color:#1D1D1D"/>
				<stop  offset="0.4939" style="stop-color:#1F1F1F"/>
				<stop  offset="1" style="stop-color:#010101"/>
			</linearGradient>
			<path class="st15" d="M56.7,113.5c3.7,5.7,6.2,40.9-13.7,24.2C26.1,121,40,74.9,56.7,113.5z"/>
		</g>
		
			<linearGradient id="SVGID_10_" gradientUnits="userSpaceOnUse" x1="209.5159" y1="133.3998" x2="209.5159" y2="133.3998" gradientTransform="matrix(0.9925 -0.1219 0.1219 0.9925 -36.6276 3.7407)">
			<stop  offset="0" style="stop-color:#010101"/>
			<stop  offset="1.164448e-02" style="stop-color:#020302;stop-opacity:0.9884"/>
			<stop  offset="0.2506" style="stop-color:#181919;stop-opacity:0.7494"/>
			<stop  offset="0.4936" style="stop-color:#232423;stop-opacity:0.5064"/>
			<stop  offset="0.7411" style="stop-color:#292929;stop-opacity:0.2589"/>
			<stop  offset="1" style="stop-color:#2B2B2B;stop-opacity:0"/>
		</linearGradient>
		<path class="st16" d="M187.6,110.6"/>
	</g>
	<g>
		<path class="st3" d="M188.2,148.9c-9.6-1.2-20.5-3.2-32.4-6.8c-20.6-6.2-37-14.8-49-22.5c-5.1-1.3-10.4-2.7-15.8-4.5
			c-11.5-3.7-21.9-7.9-31-12.2c-0.3-9.1,0.2-25,7.5-43c6.6-16.3,15.8-27.5,22-33.8c0.2-0.1,0.5-0.2,0.8-0.3c0,0,1-0.2,2.1,0.2
			c23.8,8.1,39.4,19.6,39.4,19.6c7.5,5.5,18.5,13.1,33.2,21.7c6.2,3.2,15.1,7.9,25.6,14c12.4,7.2,21,12.2,31.4,19.8
			c6.6,4.8,15.6,12,25.6,21.8c0.7,2.4,0.8,4.6,0.8,6.5c-0.7,14.9-18,23.8-20,24.8c0.2,0.3,0.6,0.7,0.7,1.2c0.5,1.8-1.2,3.6-2.1,4.7
			c-0.9,1-3.3,3.6-7,4c-2.8,0.4-5.5-0.6-6.7-1c0,0,0,0-0.1,0c-6.2-2.3-18.5-10.1-22.6-12.7C190.2,150.2,188.4,149.1,188.2,148.9z"/>
		
			<linearGradient id="SVGID_11_" gradientUnits="userSpaceOnUse" x1="88.8533" y1="74.3312" x2="88.8533" y2="66.3483" gradientTransform="matrix(0.829 0.5592 -0.5592 0.829 173.6854 -11.5025)">
			<stop  offset="0" style="stop-color:#010101"/>
			<stop  offset="1.164448e-02" style="stop-color:#020302;stop-opacity:0.9884"/>
			<stop  offset="0.2506" style="stop-color:#181919;stop-opacity:0.7494"/>
			<stop  offset="0.4936" style="stop-color:#232423;stop-opacity:0.5064"/>
			<stop  offset="0.7411" style="stop-color:#292929;stop-opacity:0.2589"/>
			<stop  offset="1" style="stop-color:#2B2B2B;stop-opacity:0"/>
		</linearGradient>
		<path class="st17" d="M248.1,128.4c0.1-0.7,0.1-1.5,0-2.5c-0.1-1.2-0.4-2.2-0.7-2.9c-8.9-8.8-17.1-15.4-23.5-20.2
			c-11.2-8.4-20.6-13.9-31.8-20.4c-10.4-6-19.5-10.8-26.5-14.3c7.8,4.1,18.4,10.1,30.7,17.9c8.7,5.5,15.6,9.8,23.8,16.2
			C227.6,107.9,237.5,116.5,248.1,128.4z"/>
		
			<linearGradient id="SVGID_12_" gradientUnits="userSpaceOnUse" x1="47.7666" y1="88.6864" x2="47.7666" y2="67.813" gradientTransform="matrix(0.829 0.5592 -0.5592 0.829 173.6854 -11.5025)">
			<stop  offset="0" style="stop-color:#010101"/>
			<stop  offset="1.164448e-02" style="stop-color:#020302;stop-opacity:0.9884"/>
			<stop  offset="0.2506" style="stop-color:#181919;stop-opacity:0.7494"/>
			<stop  offset="0.4936" style="stop-color:#232423;stop-opacity:0.5064"/>
			<stop  offset="0.7411" style="stop-color:#292929;stop-opacity:0.2589"/>
			<stop  offset="1" style="stop-color:#2B2B2B;stop-opacity:0"/>
		</linearGradient>
		<path class="st18" d="M97.9,40.7c23.2,12.5,48.6,27.7,75.1,46.2c26.9,18.8,50.2,37.7,70.1,55.4c1.1-1.3,2.5-3.3,3.6-6
			c1.3-3.3,1.4-6.2,1.4-8c-10.9-12.1-21.1-20.8-28.8-26.7c-12.1-9.3-23.7-16.2-30.3-20.1c-8.4-4.9-11.4-6.2-23.4-13.5
			c-10.1-6.1-16.8-10.5-18.7-11.7c-10.5-6.9-14.7-10.2-19.3-13.4c-7.8-5.3-19.8-11.9-37.3-17c-0.2,0.3-2.6,4.7-0.2,9.4
			C92.4,40.1,97.6,40.7,97.9,40.7z"/>
		
			<linearGradient id="SVGID_13_" gradientUnits="userSpaceOnUse" x1="-6.1632" y1="158.5495" x2="-6.1632" y2="142.0747" gradientTransform="matrix(0.829 0.5592 -0.5592 0.829 173.6854 -11.5025)">
			<stop  offset="0" style="stop-color:#010101"/>
			<stop  offset="1.164448e-02" style="stop-color:#020302;stop-opacity:0.9884"/>
			<stop  offset="0.2506" style="stop-color:#181919;stop-opacity:0.7494"/>
			<stop  offset="0.4936" style="stop-color:#232423;stop-opacity:0.5064"/>
			<stop  offset="0.7411" style="stop-color:#292929;stop-opacity:0.2589"/>
			<stop  offset="1" style="stop-color:#2B2B2B;stop-opacity:0"/>
		</linearGradient>
		<path class="st19" d="M60,103c7,3.3,14.9,6.6,23.6,9.6c8.2,2.9,16.1,5.2,23.3,7c-5.3-3.6-11-7.9-16.9-13.1
			C85.9,103,82.2,99.5,79,96C72.7,98.4,66.3,100.7,60,103z"/>
		
			<linearGradient id="SVGID_14_" gradientUnits="userSpaceOnUse" x1="39.806" y1="146.1733" x2="39.806" y2="122.6951" gradientTransform="matrix(0.829 0.5592 -0.5592 0.829 173.6854 -11.5025)">
			<stop  offset="0" style="stop-color:#010101"/>
			<stop  offset="1.164448e-02" style="stop-color:#020302;stop-opacity:0.9884"/>
			<stop  offset="0.2506" style="stop-color:#181919;stop-opacity:0.7494"/>
			<stop  offset="0.4936" style="stop-color:#232423;stop-opacity:0.5064"/>
			<stop  offset="0.7411" style="stop-color:#292929;stop-opacity:0.2589"/>
			<stop  offset="1" style="stop-color:#2B2B2B;stop-opacity:0"/>
		</linearGradient>
		<path class="st20" d="M79,96c0.2,0.5,0.5,0.8,0.6,1c4.1,4.7,20.1,17.3,27.1,22.7c12.7,8.1,23.9,13.3,32.1,16.6
			c3.4,1.4,10,3.9,18.4,6.3c6.9,2,12.8,3.3,17.1,4.1c4.8,0.9,9.1,1.6,12.6,2.1c-6.6-3.8-15.9-9.3-26.7-16.5
			c-9.6-6.4-16.6-11.6-22.8-16.2c-12-8.9-28.5-21.3-48.6-36.7C83.9,84.1,76.9,91.5,79,96z"/>
		
			<linearGradient id="SVGID_15_" gradientUnits="userSpaceOnUse" x1="57.51" y1="125.6899" x2="57.51" y2="100.9683" gradientTransform="matrix(0.829 0.5592 -0.5592 0.829 173.6854 -11.5025)">
			<stop  offset="0" style="stop-color:#010101"/>
			<stop  offset="1.164448e-02" style="stop-color:#020302;stop-opacity:0.9884"/>
			<stop  offset="0.2506" style="stop-color:#181919;stop-opacity:0.7494"/>
			<stop  offset="0.4936" style="stop-color:#232423;stop-opacity:0.5064"/>
			<stop  offset="0.7411" style="stop-color:#292929;stop-opacity:0.2589"/>
			<stop  offset="1" style="stop-color:#2B2B2B;stop-opacity:0"/>
		</linearGradient>
		<path class="st21" d="M89.2,79.6c4.6,3.5,11.4,8.6,19.7,14.7c16.6,12.3,29.2,21.6,44.8,32.3c8.3,5.6,20,13.4,34.4,22.3
			c5.7,3.4,10.2,6.3,13.2,8.3c3.9,2.6,8,5.4,13.9,6.7c1.8,0.4,3.8,0.6,6,0c2.3-0.7,3.7-2,5.8-4c1.3-1.2,1.9-2.1,2-3.2
			c0-0.7-0.2-1.3-0.3-1.6c-20.8-13-42.5-27.5-64.8-43.7c-24.7-18-47.2-35.9-67.6-53.3C93.9,65.2,91.5,72.4,89.2,79.6z"/>
		<path class="st9" d="M125.2,48.9c-0.7,0.2,1.6,2.4,2.2,3.1c5.6,5.5,13.7,9.1,34.2,22.2c1.9,1.2,12,7.7,23.3,15.5
			c4.2,2.9,6.3,4.3,7.9,5.5c7.8,5.7,11.4,9,14.1,10.2c1.2,0.5,2.2,0.6,2.1,0c-0.4-1.4-8-6.7-41.3-29.2
			C138.7,56.7,126.6,48.6,125.2,48.9z"/>
		<path class="st9" d="M160.4,125.8c-0.3,0.1-5.5-4.2-16-11.1c-8.8-5.7-14.1-8.6-23.4-15.3c-2.7-1.9-6-4.3-5.9-4.6
			c0.1-0.5,11.2,5.8,21.5,12.7C150.1,116.5,160.9,125.6,160.4,125.8z"/>
		<path class="st10" d="M156.5,81.4"/>
		<path class="st11" d="M89.6,79.1c15.1,12.3,31.6,25,49.6,37.6c16.9,11.9,33.3,22.6,49,32.3"/>
		<path class="st11" d="M79.6,96.6c4.2,4.1,8.8,8.4,13.9,12.7c4.6,3.8,9,7.3,13.3,10.4"/>
		<path class="st11" d="M97.9,40.7c24.1,13.5,44.1,26,59.5,36.1c12,7.9,26.8,17.7,45.5,32c16.4,12.6,30,24.2,40.2,33.5"/>
		<path class="st11" d="M248.1,128.4c-5.2-5.8-12.3-13.1-21.3-20.7c-2.7-2.3-5.3-4.3-7.7-6.2c-6.2-4.7-11.6-8.4-18-12.4
			c-14.4-9.2-29.4-17.5-35.5-20.9"/>
		<path class="st9" d="M231.4,147.7c0.7-0.2-1.6-2.4-2.2-3.1c-5.6-5.5-13.7-9.1-34.2-22.2c-1.9-1.2-12-7.7-23.3-15.5
			c-4.2-2.9-6.3-4.3-7.9-5.5c-7.8-5.7-11.4-9-14.1-10.2c-1.2-0.5-2.2-0.6-2.1,0c0.4,1.4,8,6.7,41.3,29.2
			C217.9,139.9,230,148.1,231.4,147.7z"/>
		
			<linearGradient id="SVGID_16_" gradientUnits="userSpaceOnUse" x1="157.4668" y1="86.0786" x2="157.4668" y2="86.0786" gradientTransform="matrix(0.829 0.5592 -0.5592 0.829 173.6854 -11.5025)">
			<stop  offset="0" style="stop-color:#010101"/>
			<stop  offset="1.164448e-02" style="stop-color:#020302;stop-opacity:0.9884"/>
			<stop  offset="0.2506" style="stop-color:#181919;stop-opacity:0.7494"/>
			<stop  offset="0.4936" style="stop-color:#232423;stop-opacity:0.5064"/>
			<stop  offset="0.7411" style="stop-color:#292929;stop-opacity:0.2589"/>
			<stop  offset="1" style="stop-color:#2B2B2B;stop-opacity:0"/>
		</linearGradient>
		<path class="st22" d="M256.1,147.9"/>
		
			<linearGradient id="SVGID_17_" gradientUnits="userSpaceOnUse" x1="-92.5332" y1="121.3331" x2="-92.5332" y2="121.3331" gradientTransform="matrix(0.829 0.5592 -0.5592 0.829 173.6854 -11.5025)">
			<stop  offset="0" style="stop-color:#010101"/>
			<stop  offset="1.164448e-02" style="stop-color:#020302;stop-opacity:0.9884"/>
			<stop  offset="0.2506" style="stop-color:#181919;stop-opacity:0.7494"/>
			<stop  offset="0.4936" style="stop-color:#232423;stop-opacity:0.5064"/>
			<stop  offset="0.7411" style="stop-color:#292929;stop-opacity:0.2589"/>
			<stop  offset="1" style="stop-color:#2B2B2B;stop-opacity:0"/>
		</linearGradient>
		<path class="st23" d="M29.1,37.3"/>
		
			<linearGradient id="SVGID_18_" gradientUnits="userSpaceOnUse" x1="54.9922" y1="107.5056" x2="54.9922" y2="82.3811" gradientTransform="matrix(0.829 0.5592 -0.5592 0.829 173.6854 -11.5025)">
			<stop  offset="0" style="stop-color:#010101"/>
			<stop  offset="1.164448e-02" style="stop-color:#020302;stop-opacity:0.9884"/>
			<stop  offset="0.2506" style="stop-color:#181919;stop-opacity:0.7494"/>
			<stop  offset="0.4936" style="stop-color:#232423;stop-opacity:0.5064"/>
			<stop  offset="0.7411" style="stop-color:#292929;stop-opacity:0.2589"/>
			<stop  offset="1" style="stop-color:#2B2B2B;stop-opacity:0"/>
		</linearGradient>
		<path class="st24" d="M96.9,58.2c17.7,14.9,36.8,30.2,57.4,45.5c25.5,18.9,50.3,35.7,73.9,50.6c2.1-1.1,4.6-2.5,7.2-4.5
			c3.4-2.6,5.9-5.2,7.7-7.4c-27.7-24.1-60.1-49.1-97.6-73.2c-16.3-10.4-32.2-19.9-47.7-28.4C97.6,46.6,97.2,52.4,96.9,58.2z"/>
		<path class="st11" d="M96.9,58.3c17.7,14.9,36.8,30.2,57.4,45.5c25.6,19,50.5,35.8,74.2,50.6"/>
		<g>
			<path class="st10" d="M83.7,84.7c-0.9,1.1-1.4,2.2-1.9,3.6c-1.5,3.9-0.6,5.2-2.1,8.7c-0.6,1.4-1.2,2.8-2.8,4.1
				c-0.6,0.5-2.2,1.6-4.4,1.8c-3.3,0.3-4.1-1.9-7-1.5c-2.7,0.3-3.4,2.4-5,1.9c-1.4-0.4-1.1-2.2-3.2-5.2c-0.7-0.9-2-2.9-4.3-4.2
				c-3-1.8-4.5-0.7-5.6-2.2c-1.7-2.2,0.2-6.6,0.9-8.4c0.9-2.1,1.5-2.4,2.2-3.8c2.4-4.8-1.5-7.6-0.8-13.6c0.7-6.5,6.3-13.2,10-15.5
				c0.4-0.3,1.3-0.7,2-1.8c1.7-2.4,0.2-4.3,0.9-7.6c0.8-3.4,3.5-6.4,6.5-7.5c0.9-0.3,1.7-0.4,3.5-0.5c4.6-0.3,4.8,0.8,6.8,0.3
				c3.1-0.8,3-3.9,7.9-6.6c1.6-0.9,2.4-1,2.9-0.8c1.8,0.4,2.7,2.8,3.7,5.7c1.3,3.6,0.6,3.7,1.5,5.7c1.7,3.8,4.1,3.7,4.9,7
				c0.4,1.5,0.1,2.8-0.3,4.9c-0.6,3.2-1.7,5.3-2.3,6.5c-3.1,6.7,1,9.6-1.9,17.1c-1,2.7-2.2,5.9-5.3,7.8
				C88.1,82.2,85.8,82.1,83.7,84.7z"/>
			
				<linearGradient id="SVGID_19_" gradientUnits="userSpaceOnUse" x1="-39.9016" y1="140.3053" x2="-39.9016" y2="95.8585" gradientTransform="matrix(0.829 0.5592 -0.5592 0.829 173.6854 -11.5025)">
				<stop  offset="0" style="stop-color:#141414"/>
				<stop  offset="0.2337" style="stop-color:#161617"/>
				<stop  offset="0.4568" style="stop-color:#1D1D1D"/>
				<stop  offset="0.4939" style="stop-color:#1F1F1F"/>
				<stop  offset="1" style="stop-color:#010101"/>
			</linearGradient>
			<path class="st25" d="M86.4,65.2c-1,6.7-22.1,35-26.2,9.3C58.3,50.6,99.1,25,86.4,65.2z"/>
		</g>
		
			<linearGradient id="SVGID_20_" gradientUnits="userSpaceOnUse" x1="100.6805" y1="125.4315" x2="100.6805" y2="125.4315" gradientTransform="matrix(0.829 0.5592 -0.5592 0.829 173.6854 -11.5025)">
			<stop  offset="0" style="stop-color:#010101"/>
			<stop  offset="1.164448e-02" style="stop-color:#020302;stop-opacity:0.9884"/>
			<stop  offset="0.2506" style="stop-color:#181919;stop-opacity:0.7494"/>
			<stop  offset="0.4936" style="stop-color:#232423;stop-opacity:0.5064"/>
			<stop  offset="0.7411" style="stop-color:#292929;stop-opacity:0.2589"/>
			<stop  offset="1" style="stop-color:#2B2B2B;stop-opacity:0"/>
		</linearGradient>
		<path class="st26" d="M187,148.8"/>
	</g>
</g>
</svg>
